<svg xmlns="http://www.w3.org/2000/svg" width="260" height="210" viewBox="20 28 260 210" role="img" aria-labelledby="title">
  <title id="title">Cake</title>
  <circle cx="116" cy="124" r="78" fill="#FACC15" />
  <path d="M 116 124 L 171.154328932551 179.154328932551 A 78 78 0 0 1 116 202 Z" fill="#FFFFFF" transform="rotate(0 116 124)" />
  <!-- M PLUS Rounded 1c ExtraBold, outlined to preserve the chosen lettering. -->
  <path fill="#332a18" d="M167.32 212.4Q160.76 212.4 157 208.52Q153.24 204.64 153.24 197.4Q153.24 190.28 156.88 186.34Q160.52 182.4 167.04 182.4Q170.16 182.4 172.48 182.84Q173.44 183 174.04 183.8Q174.64 184.6 174.64 185.6V186.88Q174.64 187.72 173.96 188.2Q173.28 188.68 172.48 188.48Q170.2 187.88 167.84 187.88Q164.24 187.88 162.22 190.32Q160.2 192.76 160.2 197.4Q160.2 201.96 162.36 204.48Q164.52 207 168.12 207Q170.52 207 172.8 206.4Q173.6 206.2 174.3 206.68Q175 207.16 175 208V209.2Q175 210.2 174.38 211Q173.76 211.8 172.8 211.96Q170.44 212.4 167.32 212.4ZM188.08 202.48Q183.2 202.48 183.2 205.48Q183.2 206.56 183.84 207.18Q184.48 207.8 185.56 207.8Q187.48 207.8 188.68 206.58Q189.88 205.36 189.88 203.32V202.84Q189.88 202.48 189.52 202.48ZM183.6 212.4Q180.84 212.4 179.06 210.62Q177.28 208.84 177.28 206Q177.28 198.72 188.08 198.72H189.52Q189.88 198.72 189.88 198.4V198.2Q189.88 196.68 189.1 196Q188.32 195.32 186.48 195.32Q184.04 195.32 180.64 196.08Q179.8 196.24 179.14 195.72Q178.48 195.2 178.48 194.36V194.28Q178.48 193.28 179.1 192.46Q179.72 191.64 180.68 191.48Q184.2 190.8 186.76 190.8Q192 190.8 194.18 192.68Q196.36 194.56 196.36 198.92V209.72Q196.36 210.64 195.68 211.32Q195 212 194.08 212H192.6Q191.64 212 190.96 211.34Q190.28 210.68 190.24 209.72V209.28Q190.24 209.24 190.2 209.24Q190.12 209.24 190.12 209.28Q187.6 212.4 183.6 212.4ZM201.68 212Q200.76 212 200.1 211.32Q199.44 210.64 199.44 209.72V184.28Q199.44 183.36 200.1 182.68Q200.76 182 201.68 182H203.64Q204.56 182 205.22 182.68Q205.88 183.36 205.88 184.28V199.04Q205.88 199.08 205.92 199.08L206 199.04L211 192.96Q212.44 191.2 214.68 191.2H217.56Q218.2 191.2 218.5 191.8Q218.8 192.4 218.36 192.92L211.52 200.96Q211.32 201.2 211.52 201.48L218.44 210.24Q218.84 210.8 218.54 211.4Q218.24 212 217.56 212H214.68Q212.44 212 211.04 210.2L206 203.64Q205.96 203.6 205.92 203.6Q205.88 203.6 205.88 203.64V209.72Q205.88 210.64 205.22 211.32Q204.56 212 203.64 212ZM229.48 195.16Q227.68 195.16 226.76 196.1Q225.84 197.04 225.6 199.32Q225.6 199.64 225.88 199.64H232.64Q233 199.64 233 199.28Q232.84 195.16 229.48 195.16ZM230.48 212.4Q225.04 212.4 222.1 209.64Q219.16 206.88 219.16 201.6Q219.16 196.36 221.78 193.58Q224.4 190.8 229.36 190.8Q238.88 190.8 239.04 201.2Q239.04 202.16 238.3 202.82Q237.56 203.48 236.6 203.48H225.92Q225.52 203.48 225.6 203.84Q225.92 206.04 227.3 206.98Q228.68 207.92 231.44 207.92Q233.24 207.92 235.32 207.4Q236.16 207.2 236.82 207.72Q237.48 208.24 237.48 209.08V209.16Q237.48 210.16 236.86 210.98Q236.24 211.8 235.28 211.96Q232.96 212.4 230.48 212.4Z" />
</svg>
